<svg xmlns="http://www.w3.org/2000/svg" version="1.1" xmlns:xlink="http://www.w3.org/1999/xlink" xmlns:svgjs="http://svgjs.dev/svgjs" width="2000" height="1999" viewBox="0 0 2000 1999"><g transform="matrix(1,0,0,1,-0.431486880466764,-0.4312711370263287)"><svg viewBox="0 0 343 343" data-background-color="#ececea" preserveAspectRatio="xMidYMid meet" height="1999" width="2000" xmlns="http://www.w3.org/2000/svg" xmlns:xlink="http://www.w3.org/1999/xlink"><g id="tight-bounds" transform="matrix(1,0,0,1,0.0740000000000407,0.07400000000001228)"><svg viewBox="0 0 342.85155851775386 342.85155851775386" height="342.85155851775386" width="342.85155851775386"><g><svg></svg></g><g><svg viewBox="0 0 342.85155851775386 342.85155851775386" height="342.85155851775386" width="342.85155851775386"><g><path d="M0 171.426c0-94.676 76.75-171.426 171.426-171.426 94.676 0 171.426 76.75 171.426 171.426 0 94.676-76.75 171.426-171.426 171.426-94.676 0-171.426-76.75-171.426-171.426zM171.426 340.882c93.588 0 169.457-75.868 169.456-169.456 0-93.588-75.868-169.457-169.456-169.457-93.588 0-169.457 75.868-169.457 169.457 0 93.588 75.868 169.457 169.457 169.456z" data-fill-palette-color="tertiary" fill="#009b7d" stroke="transparent"></path><ellipse rx="164.56874808852186" ry="164.56874808852186" cx="171.42577925887693" cy="171.42577925887693" fill="#009b7d" stroke="transparent" stroke-width="0" fill-opacity="1" data-fill-palette-color="tertiary"></ellipse></g><g transform="matrix(1,0,0,1,64.84655864529837,142.8418676325368)"><svg viewBox="0 0 213.1584412271571 57.16782325268023" height="57.16782325268023" width="213.1584412271571"><g><svg viewBox="0 0 213.1584412271571 57.16782325268023" height="57.16782325268023" width="213.1584412271571"><g><svg viewBox="0 0 213.15844122715714 57.167823252680236" height="57.16782325268023" width="213.1584412271571"><g transform="matrix(1,0,0,1,0,35.332008229479904)"><svg viewBox="0 0 213.15844122715714 21.835815023200333" height="21.835815023200333" width="213.15844122715714"><g id="textblocktransform"><svg viewBox="0 0 213.15844122715714 21.835815023200333" height="21.835815023200333" width="213.15844122715714" id="textblock"><g><svg viewBox="0 0 213.15844122715714 21.835815023200333" height="21.835815023200333" width="213.15844122715714"><g transform="matrix(1,0,0,1,0,0)"><svg width="213.15844122715714" viewBox="3.49 -35.5 351.26 35.99" height="21.835815023200333" data-palette-color="#ececea"><path d="M24.1 0L20.46 0 10.96-14.94 6.64-14.94 6.64 0 3.49 0 3.49-35.01 14.6-35.01Q16.38-35.01 17.94-34.34 19.51-33.67 20.68-32.5 21.85-31.32 22.52-29.75 23.19-28.17 23.19-26.39L23.19-26.39 23.19-23.56Q23.19-21.78 22.52-20.2 21.85-18.63 20.68-17.46 19.51-16.28 17.94-15.61 16.38-14.94 14.6-14.94L14.6-14.94 24.1 0ZM20.04-23.56L20.04-26.39Q20.04-27.56 19.6-28.58 19.17-29.59 18.41-30.36 17.65-31.13 16.64-31.57 15.63-32.01 14.45-32.01L14.45-32.01 6.64-32.01 6.64-17.94 14.45-17.94Q15.63-17.94 16.64-18.38 17.65-18.82 18.41-19.59 19.17-20.36 19.6-21.37 20.04-22.39 20.04-23.56L20.04-23.56ZM53.2 0.49L52.76 0.49Q50.63 0.49 49.06-0.42 47.48-1.32 46.56-2.86L46.56-2.86Q45.33-1.32 43.55-0.42 41.77 0.49 39.69 0.49L39.69 0.49 38.21 0.49Q36.42 0.49 34.85-0.18 33.27-0.85 32.1-2.03 30.93-3.2 30.26-4.76 29.59-6.32 29.59-8.11L29.59-8.11 29.59-10.01Q29.59-11.25 29.92-12.39 30.25-13.53 30.86-14.5 31.47-15.48 32.3-16.27 33.13-17.07 34.15-17.6L34.15-17.6Q33.13-18.14 32.3-18.93 31.47-19.73 30.86-20.7 30.25-21.68 29.92-22.81 29.59-23.95 29.59-25.2L29.59-25.2 29.59-26.9Q29.59-28.69 30.26-30.25 30.93-31.81 32.1-32.98 33.27-34.16 34.85-34.83 36.42-35.5 38.21-35.5L38.21-35.5 39.69-35.5Q41.48-35.5 43.04-34.83 44.6-34.16 45.77-32.98 46.95-31.81 47.62-30.25 48.29-28.69 48.29-26.9L48.29-26.9 48.29-26.66 45.14-26.15 45.14-26.9Q45.14-28.08 44.7-29.09 44.26-30.1 43.5-30.86 42.75-31.62 41.73-32.06 40.72-32.5 39.55-32.5L39.55-32.5 38.35-32.5Q37.18-32.5 36.17-32.06 35.15-31.62 34.38-30.86 33.62-30.1 33.18-29.09 32.74-28.08 32.74-26.9L32.74-26.9 32.74-24.71Q32.74-23.54 33.18-22.52 33.62-21.51 34.38-20.74 35.15-19.97 36.17-19.53 37.18-19.09 38.35-19.09L38.35-19.09 45.14-19.09 45.14-22.29 48.29-22.8 48.29-19.14 53.15-19.14 53.15-16.16 48.29-16.16 48.29-7.74Q48.34-6.64 48.63-5.69 48.92-4.74 49.5-4.02 50.07-3.3 50.93-2.89 51.78-2.49 52.9-2.49L52.9-2.49 53.64-2.49 53.2 0.49ZM39.55-2.49L39.55-2.49Q40.67-2.49 41.67-2.91 42.67-3.32 43.42-4.05 44.16-4.79 44.63-5.76 45.09-6.74 45.14-7.86L45.14-7.86 45.14-16.09 38.35-16.09Q37.18-16.09 36.17-15.65 35.15-15.21 34.38-14.45 33.62-13.7 33.18-12.68 32.74-11.67 32.74-10.5L32.74-10.5 32.74-8.11Q32.74-6.93 33.18-5.92 33.62-4.91 34.38-4.14 35.15-3.37 36.17-2.93 37.18-2.49 38.35-2.49L38.35-2.49 39.55-2.49ZM81.25 0L77.61 0 68.11-14.94 63.79-14.94 63.79 0 60.64 0 60.64-35.01 71.75-35.01Q73.53-35.01 75.09-34.34 76.66-33.67 77.83-32.5 79-31.32 79.67-29.75 80.34-28.17 80.34-26.39L80.34-26.39 80.34-23.56Q80.34-21.78 79.67-20.2 79-18.63 77.83-17.46 76.66-16.28 75.09-15.61 73.53-14.94 71.75-14.94L71.75-14.94 81.25 0ZM77.19-23.56L77.19-26.39Q77.19-27.56 76.75-28.58 76.31-29.59 75.56-30.36 74.8-31.13 73.79-31.57 72.77-32.01 71.6-32.01L71.6-32.01 63.79-32.01 63.79-17.94 71.6-17.94Q72.77-17.94 73.79-18.38 74.8-18.82 75.56-19.59 76.31-20.36 76.75-21.37 77.19-22.39 77.19-23.56L77.19-23.56ZM117.93-9.16L117.93-8.11Q117.93-6.32 117.21-4.76 116.49-3.2 115.29-2.03 114.08-0.85 112.48-0.18 110.88 0.49 109.1 0.49L109.1 0.49 106.58 0.49Q104.8 0.49 103.2-0.18 101.6-0.85 100.39-2.03 99.18-3.2 98.46-4.76 97.74-6.32 97.74-8.11L97.74-8.11 97.74-9.5 100.89-10.01 100.89-8.11Q100.89-6.93 101.37-5.92 101.85-4.91 102.65-4.14 103.46-3.37 104.52-2.93 105.58-2.49 106.75-2.49L106.75-2.49 108.95-2.49Q110.12-2.49 111.17-2.93 112.22-3.37 113.03-4.14 113.83-4.91 114.31-5.92 114.78-6.93 114.78-8.11L114.78-8.11 114.78-9.16Q114.78-10.96 114.08-12.16 113.37-13.35 112.2-14.2 111.03-15.04 109.55-15.63 108.07-16.21 106.51-16.8 104.95-17.38 103.47-18.09 101.99-18.8 100.82-19.86 99.65-20.92 98.94-22.46 98.23-24 98.23-26.25L98.23-26.25 98.23-26.9Q98.23-28.69 98.9-30.25 99.57-31.81 100.75-32.98 101.92-34.16 103.49-34.83 105.07-35.5 106.85-35.5L106.85-35.5 109.1-35.5Q110.88-35.5 112.44-34.83 114-34.16 115.18-32.98 116.35-31.81 117.02-30.25 117.69-28.69 117.69-26.9L117.69-26.9 117.69-26 114.54-25.49 114.54-26.9Q114.54-28.08 114.1-29.09 113.66-30.1 112.91-30.86 112.15-31.62 111.14-32.06 110.12-32.5 108.95-32.5L108.95-32.5 107-32.5Q105.82-32.5 104.81-32.06 103.8-31.62 103.03-30.86 102.26-30.1 101.82-29.09 101.38-28.08 101.38-26.9L101.38-26.9 101.38-26.25Q101.38-24.56 102.09-23.41 102.8-22.27 103.97-21.45 105.14-20.63 106.62-20.03 108.1-19.43 109.66-18.81 111.22-18.19 112.7-17.44 114.17-16.7 115.35-15.61 116.52-14.53 117.23-12.96 117.93-11.4 117.93-9.16L117.93-9.16ZM140.39 0L137.39 0 137.39-18.31Q137.39-19.21 137.05-20.01 136.71-20.8 136.12-21.39 135.53-21.97 134.74-22.31 133.95-22.66 133.04-22.66L133.04-22.66 131.04-22.66Q130.14-22.66 129.35-22.31 128.55-21.97 127.97-21.39 127.38-20.8 127.04-20.01 126.7-19.21 126.7-18.31L126.7-18.31 126.7 0 123.69 0 123.69-35.01 126.7-35.01 126.7-22.9Q127.72-24.12 129.16-24.8 130.6-25.49 132.29-25.49L132.29-25.49 133.04-25.49Q134.56-25.49 135.9-24.91 137.24-24.34 138.24-23.34 139.25-22.34 139.82-21 140.39-19.65 140.39-18.14L140.39-18.14 140.39 0ZM163.1 0L162.09 0 160.43-2.54Q159.41-1.15 157.87-0.33 156.33 0.49 154.5 0.49L154.5 0.49 153.74 0.49Q152.23 0.49 150.89-0.09 149.55-0.66 148.54-1.66 147.54-2.66 146.97-4 146.4-5.35 146.4-6.86L146.4-6.86 146.4-25 149.4-25 149.4-6.69Q149.4-5.79 149.74-4.99 150.08-4.2 150.67-3.61 151.25-3.03 152.05-2.69 152.84-2.34 153.74-2.34L153.74-2.34 155.75-2.34Q156.65-2.34 157.44-2.69 158.24-3.03 158.82-3.61 159.41-4.2 159.75-4.99 160.09-5.79 160.09-6.69L160.09-6.69 160.09-25 163.1-25 163.1 0ZM180.94 0L178.21 0Q176.84 0 175.63-0.51 174.42-1.03 173.53-1.93 172.64-2.83 172.11-4.03 171.59-5.22 171.59-6.59L171.59-6.59 171.59-22.14 167.1-22.14 167.1-25 171.59-25 171.59-31.01 174.59-31.49 174.59-25 180.94-25 180.94-22.14 174.59-22.14 174.59-6.45Q174.59-5.69 174.87-5.04 175.15-4.39 175.64-3.91 176.13-3.42 176.79-3.14 177.45-2.86 178.21-2.86L178.21-2.86 180.94-2.86 180.94 0ZM198.3 0L195.56 0Q194.19 0 192.99-0.51 191.78-1.03 190.89-1.93 189.99-2.83 189.47-4.03 188.94-5.22 188.94-6.59L188.94-6.59 188.94-22.14 184.45-22.14 184.45-25 188.94-25 188.94-31.01 191.95-31.49 191.95-25 198.3-25 198.3-22.14 191.95-22.14 191.95-6.45Q191.95-5.69 192.23-5.04 192.51-4.39 193-3.91 193.49-3.42 194.15-3.14 194.8-2.86 195.56-2.86L195.56-2.86 198.3-2.86 198.3 0ZM220.51-6.86L220.51-6.86Q220.51-5.35 219.94-4 219.36-2.66 218.36-1.66 217.36-0.66 216.02-0.09 214.67 0.49 213.16 0.49L213.16 0.49 211.16 0.49Q209.65 0.49 208.3-0.09 206.96-0.66 205.96-1.66 204.96-2.66 204.38-4 203.81-5.35 203.81-6.86L203.81-6.86 203.81-18.14Q203.81-19.65 204.38-21 204.96-22.34 205.96-23.34 206.96-24.34 208.3-24.91 209.65-25.49 211.16-25.49L211.16-25.49 213.16-25.49Q214.67-25.49 216.02-24.91 217.36-24.34 218.36-23.34 219.36-22.34 219.94-21 220.51-19.65 220.51-18.14L220.51-18.14 220.51-12.26 206.81-12.26 206.81-6.69Q206.81-5.79 207.16-4.99 207.5-4.2 208.08-3.61 208.67-3.03 209.46-2.69 210.26-2.34 211.16-2.34L211.16-2.34 213.16-2.34Q214.06-2.34 214.86-2.69 215.65-3.03 216.24-3.61 216.82-4.2 217.17-4.99 217.51-5.79 217.51-6.69L217.51-6.69 217.51-8.35 220.51-7.86 220.51-6.86ZM217.51-14.6L217.51-18.31Q217.51-19.21 217.17-20.01 216.82-20.8 216.24-21.39 215.65-21.97 214.86-22.31 214.06-22.66 213.16-22.66L213.16-22.66 211.16-22.66Q210.26-22.66 209.46-22.31 208.67-21.97 208.08-21.39 207.5-20.8 207.16-20.01 206.81-19.21 206.81-18.31L206.81-18.31 206.81-14.6 217.51-14.6ZM236.86-22.14L233.86-22.14Q232.96-22.14 232.16-21.8 231.37-21.46 230.79-20.87 230.2-20.29 229.86-19.49 229.52-18.7 229.52-17.8L229.52-17.8 229.52 0 226.51 0 226.51-25 227.51-25 229.15-22.46Q230.18-23.85 231.73-24.67 233.28-25.49 235.11-25.49L235.11-25.49 236.86-25.49 236.86-22.14ZM274.51-35.01L265.26 0 263.62 0 256.81-26.34 256.71-27.71 256.56-26.34 249.8 0 248.17 0 238.86-35.01 242.01-35.01 248.87-8.4 248.97-7.1 249.07-8.4 255.81-35.01 257.57-35.01 264.3-8.4 264.4-7.1 264.52-8.4 271.36-35.01 274.51-35.01ZM294.5-6.86L294.5-6.86Q294.5-5.35 293.93-4 293.35-2.66 292.35-1.66 291.35-0.66 290.01-0.09 288.67 0.49 287.15 0.49L287.15 0.49 285.15 0.49Q283.64 0.49 282.29-0.09 280.95-0.66 279.95-1.66 278.95-2.66 278.38-4 277.8-5.35 277.8-6.86L277.8-6.86 277.8-18.14Q277.8-19.65 278.38-21 278.95-22.34 279.95-23.34 280.95-24.34 282.29-24.91 283.64-25.49 285.15-25.49L285.15-25.49 287.15-25.49Q288.67-25.49 290.01-24.91 291.35-24.34 292.35-23.34 293.35-22.34 293.93-21 294.5-19.65 294.5-18.14L294.5-18.14 294.5-6.86ZM291.5-6.69L291.5-18.31Q291.5-19.21 291.16-20.01 290.81-20.8 290.23-21.39 289.64-21.97 288.85-22.31 288.06-22.66 287.15-22.66L287.15-22.66 285.15-22.66Q284.25-22.66 283.45-22.31 282.66-21.97 282.07-21.39 281.49-20.8 281.15-20.01 280.8-19.21 280.8-18.31L280.8-18.31 280.8-6.69Q280.8-5.79 281.15-4.99 281.49-4.2 282.07-3.61 282.66-3.03 283.45-2.69 284.25-2.34 285.15-2.34L285.15-2.34 287.15-2.34Q288.06-2.34 288.85-2.69 289.64-3.03 290.23-3.61 290.81-4.2 291.16-4.99 291.5-5.79 291.5-6.69L291.5-6.69ZM310.86-22.14L307.85-22.14Q306.95-22.14 306.16-21.8 305.36-21.46 304.78-20.87 304.19-20.29 303.85-19.49 303.51-18.7 303.51-17.8L303.51-17.8 303.51 0 300.5 0 300.5-25 301.51-25 303.14-22.46Q304.17-23.85 305.72-24.67 307.27-25.49 309.1-25.49L309.1-25.49 310.86-25.49 310.86-22.14ZM333.56 0L329.65 0 319.45-12.5 329.65-25 333.56-25 323.11-12.5 333.56 0ZM318.86 0L315.86 0 315.86-35.01 318.86-35.01 318.86 0ZM354.75-6.35L354.75-6.35Q354.75-4.83 354.14-3.58 353.53-2.32 352.48-1.42 351.43-0.51 350.05-0.01 348.67 0.49 347.15 0.49L347.15 0.49 345.15 0.49Q343.64 0.49 342.26-0.09 340.88-0.66 339.84-1.66 338.81-2.66 338.18-4 337.56-5.35 337.56-6.86L337.56-6.86 337.56-7.86 340.56-8.35 340.56-6.69Q340.56-5.79 340.94-4.99 341.32-4.2 341.95-3.61 342.59-3.03 343.42-2.69 344.25-2.34 345.15-2.34L345.15-2.34 347.15-2.34Q348.06-2.34 348.89-2.61 349.72-2.88 350.37-3.38 351.01-3.88 351.39-4.59 351.77-5.3 351.77-6.2L351.77-6.2Q351.77-7.54 351.18-8.4 350.6-9.25 349.63-9.83 348.67-10.4 347.44-10.78 346.2-11.16 344.91-11.54 343.61-11.91 342.38-12.4 341.15-12.89 340.18-13.68 339.22-14.48 338.63-15.67 338.05-16.87 338.05-18.65L338.05-18.65Q338.05-20.17 338.63-21.42 339.22-22.68 340.22-23.58 341.22-24.49 342.55-24.99 343.88-25.49 345.4-25.49L345.4-25.49 347.15-25.49Q348.67-25.49 350.01-24.91 351.35-24.34 352.36-23.34 353.36-22.34 353.93-21 354.5-19.65 354.5-18.14L354.5-18.14 354.5-18.04 351.5-17.55 351.5-18.31Q351.5-19.21 351.16-20.01 350.82-20.8 350.23-21.39 349.65-21.97 348.85-22.31 348.06-22.66 347.15-22.66L347.15-22.66 345.4-22.66Q344.49-22.66 343.7-22.39 342.91-22.12 342.32-21.62 341.73-21.12 341.39-20.41 341.05-19.7 341.05-18.8L341.05-18.8Q341.05-17.5 341.64-16.69 342.22-15.87 343.19-15.31 344.15-14.75 345.38-14.37 346.62-13.99 347.9-13.59 349.18-13.18 350.41-12.67 351.65-12.16 352.61-11.35 353.58-10.55 354.16-9.34 354.75-8.13 354.75-6.35Z" opacity="1" transform="matrix(1,0,0,1,0,0)" fill="#ececea" class="wordmark-text-0" data-fill-palette-color="quaternary" id="text-0"></path></svg></g></svg></g></svg></g></svg></g><g transform="matrix(1,0,0,1,86.98370349535594,0)"><svg viewBox="0 0 39.191034236445276 30.177096362062862" height="30.177096362062862" width="39.191034236445276"><g><svg version="1.1" xmlns="http://www.w3.org/2000/svg" xmlns:xlink="http://www.w3.org/1999/xlink" x="0" y="0" viewBox="0 0 100 77" enable-background="new 0 0 100 77" xml:space="preserve" height="30.177096362062862" width="39.191034236445276" class="icon-icon-0" data-fill-palette-color="quaternary" id="icon-0"><path d="M50 32C42.832 32 37 37.832 37 45S42.832 58 50 58 63 52.168 63 45 57.168 32 50 32" fill="#ececea" data-fill-palette-color="quaternary"></path><path d="M87 13H72C72 5.82 66.18 0 59 0H41C33.82 0 28 5.82 28 13H13C5.82 13 0 18.82 0 26V64C0 71.18 5.82 77 13 77H87C94.18 77 100 71.18 100 64V26C100 18.82 94.18 13 87 13M50 68C37.317 68 27 57.682 27 45S37.317 22 50 22 73 32.318 73 45 62.683 68 50 68" fill="#ececea" data-fill-palette-color="quaternary"></path></svg></g></svg></g><g></g></svg></g></svg></g></svg></g></svg></g><defs></defs></svg><rect width="342.85155851775386" height="342.85155851775386" fill="none" stroke="none" visibility="hidden"></rect></g></svg></g></svg>